<svg version="1.1" id="Layer_1" xmlns="http://www.w3.org/2000/svg" xmlns:xlink="http://www.w3.org/1999/xlink" x="0px" y="0px"
	 width="100%" viewBox="0 0 810 456" enable-background="new 0 0 810 456" xml:space="preserve">
<path fill="#FDFDFD" opacity="1.000000" stroke="none" 
	d="
M519.000000,457.000000 
	C346.000000,457.000000 173.500000,457.000000 1.000000,457.000000 
	C1.000000,305.000000 1.000000,153.000000 1.000000,1.000000 
	C271.000000,1.000000 541.000000,1.000000 811.000000,1.000000 
	C811.000000,153.000000 811.000000,305.000000 811.000000,457.000000 
	C713.833313,457.000000 616.666687,457.000000 519.000000,457.000000 
M326.726898,209.157501 
	C326.567871,209.037186 326.408813,208.916855 326.189178,208.920258 
	C326.189178,208.920258 326.444061,208.933380 325.847626,208.570999 
	C324.234039,208.089462 322.620422,207.607910 320.430084,206.956070 
	C320.029694,206.940903 319.629333,206.925735 318.911743,206.212448 
	C306.994598,202.977722 297.277069,209.500916 293.359253,223.557556 
	C293.066437,226.608566 291.578400,230.251938 292.734589,232.584839 
	C295.002869,237.161835 298.511597,241.215820 301.959442,245.082886 
	C304.110931,247.495987 313.560730,248.030884 316.764343,246.285706 
	C317.515961,246.278015 318.267609,246.270325 319.614685,246.726883 
	C323.110168,247.042999 326.939911,248.100876 327.993378,243.004578 
	C327.993378,243.004578 327.956726,242.971283 328.700195,243.004715 
	C331.083130,241.790375 333.466064,240.576035 335.848999,239.361694 
	C335.233917,239.043564 334.618835,238.725418 334.003754,238.407272 
	C334.003754,235.984970 333.076965,232.937820 334.199738,231.272507 
	C336.428223,227.967209 337.783203,232.350388 339.719635,232.794342 
	C340.042419,232.868347 340.362885,232.952484 340.832458,233.845993 
	C340.782318,235.220200 340.732208,236.594391 340.092773,238.097229 
	C339.702972,240.464493 337.429626,243.012604 341.311249,245.689896 
	C344.768066,245.689896 348.224854,245.689896 352.159302,245.689896 
	C352.159302,238.829102 352.043671,232.039139 352.193726,225.255066 
	C352.328033,219.184402 356.021454,215.391205 361.264313,215.557098 
	C366.165009,215.712158 368.761017,218.948273 368.834595,225.264252 
	C368.913605,232.047424 368.852448,238.832245 368.852448,245.653229 
	C372.789459,245.653229 376.335724,245.653229 380.022675,245.653229 
	C380.022675,236.543091 380.565247,227.704941 379.766541,218.989731 
	C379.427551,215.290649 376.988434,211.108276 374.237366,208.462189 
	C369.961639,204.349609 364.144287,204.961121 357.807312,206.079742 
	C355.548370,206.019989 353.289429,205.960251 350.348602,205.958176 
	C349.897858,205.905518 349.447083,205.852844 348.651886,205.245987 
	C346.437988,205.441864 344.224060,205.637741 341.399628,206.136292 
	C341.162170,206.761139 340.924744,207.386002 340.403839,208.192688 
	C340.499084,208.458725 340.594299,208.724762 340.852173,209.899948 
	C340.806946,213.590302 340.761749,217.280640 340.030579,220.955612 
	C337.729462,219.253830 335.428375,217.552063 332.890045,215.505783 
	C332.711395,215.273926 332.478882,215.127777 331.904419,214.772842 
	C331.904419,214.772842 331.840942,214.365860 331.774414,213.794006 
	C331.503235,213.534225 331.232056,213.274445 330.626495,212.915985 
	C330.626495,212.915985 330.278046,212.904755 330.044220,212.262466 
	C329.196075,211.522446 328.347931,210.782440 327.448029,209.800491 
	C327.448029,209.800491 327.009583,209.684753 326.726898,209.157501 
M632.593506,187.614960 
	C632.929443,183.035904 633.288940,178.458084 633.526917,173.873947 
	C633.538025,173.660385 632.463684,173.390472 631.891357,173.034225 
	C631.891357,173.034225 631.855591,173.141083 631.953369,172.338364 
	C631.519226,171.175644 631.085083,170.012939 630.769043,168.297653 
	C630.794373,167.922623 630.819702,167.547607 630.858337,166.460266 
	C626.699829,163.935318 622.313477,161.711182 618.455505,158.789398 
	C615.419678,156.490280 612.753235,156.658081 609.732727,158.171799 
	C607.093323,159.494568 604.345642,160.655685 601.875244,162.244843 
	C599.780212,163.592484 598.013000,165.449814 596.075378,167.684708 
	C596.167175,168.076019 596.259033,168.467346 595.687500,169.250290 
	C595.227600,170.624649 594.767761,171.998993 594.271790,173.722595 
	C594.271790,173.722595 594.160767,174.058533 593.763855,174.162231 
	C593.682983,174.270355 593.520020,174.460510 593.533630,174.474167 
	C593.712463,174.653152 593.916321,174.807190 594.181152,175.730453 
	C594.133484,176.493698 594.085815,177.256943 593.261108,178.168549 
	C591.779846,181.254288 590.399353,184.331253 594.410522,187.533157 
	C599.681580,190.384216 604.948914,193.242203 610.250854,196.034668 
	C610.352478,196.088211 610.861206,195.368851 611.939941,195.012466 
	C612.952454,195.000580 613.965027,194.988693 615.227234,195.317535 
	C615.407349,195.553711 615.644165,195.694778 616.337708,196.370590 
	C619.746460,195.208542 623.323669,194.378784 626.504028,192.766220 
	C628.582947,191.712128 630.086426,189.523163 631.974365,187.895096 
	C631.974365,187.895096 631.837219,187.892151 632.593506,187.614960 
M272.344818,231.679337 
	C271.262817,230.021194 270.180786,228.363037 269.136810,226.099731 
	C268.980164,225.733170 268.823517,225.366608 268.577271,224.277527 
	C266.715454,219.132736 264.942749,213.952560 262.924622,208.869843 
	C262.462219,207.705261 261.239746,206.147049 260.220428,206.028259 
	C257.047699,205.658524 253.804535,205.892792 250.053360,205.892792 
	C254.572067,217.400818 258.717194,228.051758 262.936279,238.673325 
	C266.448456,247.515305 264.148560,245.616058 273.795776,245.957687 
	C276.744781,246.062149 278.227570,245.095551 278.065155,241.617340 
	C278.065155,241.617340 278.071381,241.190079 278.732819,240.955292 
	C282.498840,231.969955 286.264832,222.984604 290.221375,213.843140 
	C290.221375,213.843140 290.148254,213.607910 290.706573,213.073074 
	C291.600586,210.847321 292.494598,208.621567 293.621216,205.816696 
	C290.197510,205.816696 287.392303,205.583221 284.660156,205.928284 
	C283.521240,206.072128 281.991638,207.232391 281.571625,208.297867 
	C278.605957,215.820709 275.882751,223.439148 273.002289,231.069061 
	C273.002289,231.069061 273.049683,231.145874 272.344818,231.679337 
M123.702957,211.064194 
	C124.470436,211.424500 125.237915,211.784805 125.916786,212.833862 
	C125.359146,215.190887 123.952858,216.680481 121.750069,214.978958 
	C118.432861,212.416611 115.253181,209.577744 112.524574,206.416611 
	C111.781860,205.556183 112.736320,203.086975 113.142433,201.412003 
	C113.772003,198.815399 114.599495,196.266769 115.530548,193.050125 
	C109.738548,194.311630 105.352112,199.886292 105.017128,204.836365 
	C104.311340,215.266312 109.277069,221.642731 121.232185,226.693726 
	C135.303894,232.638977 148.765198,230.976425 162.146790,224.546188 
	C175.180420,218.283173 179.115662,202.316589 168.729202,190.286087 
	C168.296768,189.785187 167.795135,188.991211 167.295471,188.967331 
	C165.797745,188.895782 164.285004,189.138824 162.778122,189.259079 
	C162.941208,190.416321 162.754578,191.795792 163.325333,192.693954 
	C166.509109,197.703995 168.621765,202.477112 164.843231,208.395111 
	C162.135895,212.635376 159.014465,213.855148 156.604034,210.443436 
	C156.604034,210.443436 156.663483,210.452118 157.419128,210.768829 
	C158.208237,210.225967 159.720825,209.592850 159.666229,209.155258 
	C159.366257,206.750946 158.682693,204.394485 157.968536,201.348419 
	C158.015533,200.892029 158.062531,200.435638 158.563568,199.606094 
	C158.424377,198.749466 158.285202,197.892853 158.000946,196.538712 
	C157.984741,196.366714 157.968536,196.194733 157.926727,195.322845 
	C157.231766,194.118271 156.536789,192.913712 156.142426,191.167938 
	C156.270309,191.061081 156.435028,190.976074 156.515106,190.840897 
	C156.586945,190.719650 156.623306,190.430679 156.577286,190.407120 
	C151.135483,187.619354 145.702698,184.812210 140.208755,182.130417 
	C139.592743,181.829727 138.527756,182.034470 137.840195,182.361069 
	C132.885117,184.714783 127.953049,187.120895 123.092178,189.660629 
	C122.746613,189.841202 123.025681,191.217285 122.942322,192.726532 
	C122.637817,193.828506 122.333313,194.930496 121.311073,196.417953 
	C121.168907,198.610641 121.026741,200.803314 120.142410,203.185822 
	C119.774361,205.135666 118.984932,207.143936 119.243164,209.006973 
	C119.348228,209.764984 121.729553,210.207489 123.702957,211.064194 
M563.963562,213.518173 
	C552.305298,215.041595 551.903442,214.622711 551.576172,203.244141 
	C551.269592,192.585617 553.978821,192.825150 540.385742,193.472458 
	C540.112671,193.485474 539.855042,193.821716 539.232605,194.257584 
	C539.232605,210.453995 539.189514,226.896652 539.352600,243.337250 
	C539.361267,244.210587 541.006714,245.611450 542.072021,245.815048 
	C544.159668,246.214050 546.429443,246.223892 548.515930,245.827133 
	C549.556519,245.629272 550.993103,244.276810 551.147766,243.276123 
	C551.574585,240.515610 551.462097,237.665649 551.488403,234.850342 
	C551.590942,223.870773 550.438354,224.914932 561.380371,224.897964 
	C574.291931,224.877930 574.291992,224.899399 574.272339,237.694397 
	C574.259888,245.789963 574.284241,245.496414 582.048889,246.140839 
	C586.135254,246.479980 586.877319,245.006805 586.843018,241.450806 
	C586.707947,227.475418 586.772034,213.498077 586.769836,199.521454 
	C586.768860,193.068085 586.761169,193.368286 580.248901,193.029037 
	C575.622437,192.788040 573.799072,194.328934 574.352478,198.902557 
	C574.550842,200.542068 574.409546,202.226791 574.373962,203.889832 
	C574.145935,214.547470 576.075317,213.398544 563.963562,213.518173 
M664.066650,205.244614 
	C661.342468,206.256729 658.618286,207.268845 655.069946,208.587158 
	C655.069946,204.122314 654.986084,200.357132 655.093811,196.597427 
	C655.199402,192.912277 655.548645,189.853729 649.906860,190.096970 
	C645.166382,190.301331 642.939880,191.008575 643.297058,196.403122 
	C643.768860,203.527573 643.398560,210.707535 643.397278,217.863632 
	C643.395996,225.352539 643.288635,232.844330 643.476624,240.328598 
	C643.532593,242.555084 642.963318,246.264999 646.809692,245.677246 
	C654.039062,244.572525 660.999207,245.604477 668.111633,246.545135 
	C670.934692,246.918518 674.345642,245.451660 677.005920,243.960770 
	C684.829224,239.576370 688.617676,229.031845 686.025940,220.094437 
	C682.963989,209.535950 676.578064,205.013840 664.066650,205.244614 
M634.977417,230.495880 
	C634.970764,223.662933 634.738464,216.820145 635.036438,210.000504 
	C635.236511,205.421417 632.430908,205.704865 629.555908,205.953964 
	C626.803467,206.192444 622.782166,204.325836 623.008606,209.937347 
	C623.243530,215.760498 623.177429,221.604965 622.999939,227.432709 
	C622.859070,232.057129 618.872131,236.052078 614.857300,235.993866 
	C610.648376,235.932846 607.850037,232.664398 607.658264,227.440384 
	C607.481079,222.614761 607.585876,217.772614 607.244141,212.960632 
	C606.701111,205.315063 606.325867,205.017700 598.681030,206.088928 
	C597.496277,206.254929 595.598389,207.881226 595.587891,208.849182 
	C595.497375,217.162582 595.051331,225.571289 596.101685,233.773514 
	C597.502136,244.710617 608.132568,249.717178 618.324158,245.314178 
	C619.894348,244.635834 622.276123,244.881226 623.942566,245.548569 
	C630.565918,248.201050 635.017456,245.479507 634.997131,238.493423 
	C634.990295,236.160233 634.982422,233.827057 634.977417,230.495880 
M508.926697,220.424805 
	C508.190796,218.572617 507.464111,216.716705 506.717407,214.868881 
	C502.902771,205.428574 502.900909,205.428360 492.440186,206.131866 
	C492.291809,206.141846 492.152832,206.291504 491.537201,206.654251 
	C492.177216,208.356155 492.783722,210.180862 493.538818,211.941833 
	C497.990173,222.322418 502.570068,232.649734 506.846008,243.101624 
	C507.466827,244.619095 507.339081,247.266632 506.381897,248.383942 
	C505.337708,249.602875 502.936798,250.031189 501.105194,250.087723 
	C499.609802,250.133850 498.081848,249.125549 496.282806,248.482742 
	C494.998413,251.307251 493.801239,253.939972 492.645020,256.482574 
	C502.853912,263.362762 512.992188,260.511353 517.576477,249.864471 
	C518.625671,247.427673 519.483765,244.909119 520.454529,242.437881 
	C525.164673,230.447388 529.883240,218.460205 534.631470,206.388916 
	C524.376160,204.961456 524.367981,204.958298 520.967407,213.775436 
	C518.618896,219.864807 516.296936,225.964432 513.651367,232.873489 
	C511.895142,228.279160 510.533264,224.716553 508.926697,220.424805 
M417.152435,233.109940 
	C421.335205,242.366745 428.077728,246.700867 437.864197,246.423492 
	C447.420319,246.152649 455.002686,241.281174 457.958710,233.513275 
	C461.103516,225.249283 458.780945,215.573074 452.392853,210.325165 
	C445.021820,204.269791 433.338928,203.618134 425.315460,208.814819 
	C417.421600,213.927567 414.368042,222.476593 417.152435,233.109940 
M208.181564,206.346863 
	C208.181564,219.427261 208.181564,232.507660 208.181564,245.581207 
	C211.600693,245.581207 215.033157,245.581207 218.953674,245.581207 
	C218.953674,239.061295 218.907333,232.784912 218.966248,226.509537 
	C219.029739,219.744781 222.549713,215.423904 227.852097,215.450287 
	C232.983154,215.475815 235.445251,218.718872 235.592072,226.072952 
	C235.720932,232.527390 235.618988,238.986435 235.618988,245.591980 
	C239.623795,245.591980 243.158447,245.591980 246.984116,245.591980 
	C246.984116,237.605438 247.055389,229.973602 246.961853,222.343781 
	C246.885544,216.119461 245.769821,210.217041 239.315918,207.315140 
	C232.743103,204.359772 226.385696,204.870499 220.538635,209.371277 
	C220.175110,209.651077 219.676651,209.755554 219.118118,209.994095 
	C218.792709,208.648865 218.495804,207.421448 218.170319,206.075882 
	C214.975479,206.075882 212.001633,206.075882 208.181564,206.346863 
M390.849701,229.514832 
	C390.698792,235.429840 390.431763,241.655518 396.716522,244.788864 
	C402.398285,247.621567 408.245056,247.161972 413.778778,243.307617 
	C412.862915,240.667252 412.006195,238.197372 411.157593,235.750870 
	C404.453522,237.322144 402.623657,236.746246 402.370789,232.441025 
	C402.052765,227.025848 402.294189,221.577835 402.294189,215.607086 
	C405.722778,215.607086 408.789185,215.607086 412.042328,215.607086 
	C412.042328,212.354950 412.042328,209.654022 412.042328,206.666962 
	C408.608093,206.666962 405.514587,206.666962 401.963379,206.666962 
	C401.963379,203.134842 401.963379,199.890274 401.963379,196.553406 
	C398.079773,196.553406 394.669342,196.553406 391.010834,196.553406 
	C390.822327,200.055145 390.648224,203.289078 390.464294,206.705200 
	C388.352478,206.878281 386.735565,207.010803 385.066101,207.147644 
	C385.066101,210.021759 385.066101,212.755783 385.066101,215.438004 
	C387.154877,215.552429 388.896271,215.647827 390.850433,215.754883 
	C390.850433,220.335678 390.850433,224.478500 390.849701,229.514832 
M478.661285,220.480759 
	C481.995392,218.480530 485.329498,216.480301 488.663605,214.480072 
	C488.982025,214.844772 489.300415,215.209473 489.618835,215.574173 
	C489.618835,212.350464 489.618835,209.126740 489.618835,204.482147 
	C485.019470,206.511978 481.133514,208.226974 477.252960,209.939575 
	C477.122711,208.973831 476.920258,207.472702 476.744720,206.171280 
	C472.950745,206.171280 469.550629,206.171280 466.088745,206.171280 
	C466.088745,219.569550 466.088745,232.610611 466.088745,245.566696 
	C469.833130,245.566696 473.251404,245.566696 477.087982,245.566696 
	C477.087982,243.174622 476.989746,241.044540 477.106750,238.926346 
	C477.433960,233.003616 477.850189,227.085800 478.661285,220.480759 
M189.823792,245.796234 
	C192.575546,245.796234 195.327316,245.796234 198.090942,245.796234 
	C198.090942,228.119934 198.090942,211.059952 198.090942,193.891418 
	C194.186508,193.891418 190.616257,193.891418 186.588593,193.891418 
	C186.588593,210.622742 186.556641,227.060379 186.688187,243.496704 
	C186.694412,244.272598 188.153091,245.036850 189.823792,245.796234 
z"/>
<path fill="#4ED7E6" opacity="1.000000" stroke="none" 
	d="
M564.417603,213.511673 
	C576.075317,213.398544 574.145935,214.547470 574.373962,203.889832 
	C574.409546,202.226791 574.550842,200.542068 574.352478,198.902557 
	C573.799072,194.328934 575.622437,192.788040 580.248901,193.029037 
	C586.761169,193.368286 586.768860,193.068085 586.769836,199.521454 
	C586.772034,213.498077 586.707947,227.475418 586.843018,241.450806 
	C586.877319,245.006805 586.135254,246.479980 582.048889,246.140839 
	C574.284241,245.496414 574.259888,245.789963 574.272339,237.694397 
	C574.291992,224.899399 574.291931,224.877930 561.380371,224.897964 
	C550.438354,224.914932 551.590942,223.870773 551.488403,234.850342 
	C551.462097,237.665649 551.574585,240.515610 551.147766,243.276123 
	C550.993103,244.276810 549.556519,245.629272 548.515930,245.827133 
	C546.429443,246.223892 544.159668,246.214050 542.072021,245.815048 
	C541.006714,245.611450 539.361267,244.210587 539.352600,243.337250 
	C539.189514,226.896652 539.232605,210.453995 539.232605,194.257584 
	C539.855042,193.821716 540.112671,193.485474 540.385742,193.472458 
	C553.978821,192.825150 551.269592,192.585617 551.576172,203.244141 
	C551.903442,214.622711 552.305298,215.041595 564.417603,213.511673 
z"/>
<path fill="#4ED5E3" opacity="1.000000" stroke="none" 
	d="
M664.494019,205.197098 
	C676.578064,205.013840 682.963989,209.535950 686.025940,220.094437 
	C688.617676,229.031845 684.829224,239.576370 677.005920,243.960770 
	C674.345642,245.451660 670.934692,246.918518 668.111633,246.545135 
	C660.999207,245.604477 654.039062,244.572525 646.809692,245.677246 
	C642.963318,246.264999 643.532593,242.555084 643.476624,240.328598 
	C643.288635,232.844330 643.395996,225.352539 643.397278,217.863632 
	C643.398560,210.707535 643.768860,203.527573 643.297058,196.403122 
	C642.939880,191.008575 645.166382,190.301331 649.906860,190.096970 
	C655.548645,189.853729 655.199402,192.912277 655.093811,196.597427 
	C654.986084,200.357132 655.069946,204.122314 655.069946,208.587158 
	C658.618286,207.268845 661.342468,206.256729 664.494019,205.197098 
M664.580078,215.095062 
	C663.006958,215.561234 661.285461,215.762177 659.888611,216.543442 
	C655.739075,218.864288 654.742981,222.821609 655.045776,227.203842 
	C655.335388,231.396149 657.484009,235.072998 661.454163,235.708908 
	C664.627441,236.217178 669.250061,235.483429 671.251099,233.400497 
	C673.436951,231.125259 674.263367,226.599747 674.024902,223.170334 
	C673.700806,218.509109 670.404297,215.501099 664.580078,215.095062 
z"/>
<path fill="#4FD6E4" opacity="1.000000" stroke="none" 
	d="
M634.976257,230.994873 
	C634.982422,233.827057 634.990295,236.160233 634.997131,238.493423 
	C635.017456,245.479507 630.565918,248.201050 623.942566,245.548569 
	C622.276123,244.881226 619.894348,244.635834 618.324158,245.314178 
	C608.132568,249.717178 597.502136,244.710617 596.101685,233.773514 
	C595.051331,225.571289 595.497375,217.162582 595.587891,208.849182 
	C595.598389,207.881226 597.496277,206.254929 598.681030,206.088928 
	C606.325867,205.017700 606.701111,205.315063 607.244141,212.960632 
	C607.585876,217.772614 607.481079,222.614761 607.658264,227.440384 
	C607.850037,232.664398 610.648376,235.932846 614.857300,235.993866 
	C618.872131,236.052078 622.859070,232.057129 622.999939,227.432709 
	C623.177429,221.604965 623.243530,215.760498 623.008606,209.937347 
	C622.782166,204.325836 626.803467,206.192444 629.555908,205.953964 
	C632.430908,205.704865 635.236511,205.421417 635.036438,210.000504 
	C634.738464,216.820145 634.970764,223.662933 634.976257,230.994873 
z"/>
<path fill="#123055" opacity="1.000000" stroke="none" 
	d="
M509.049042,220.789368 
	C510.533264,224.716553 511.895142,228.279160 513.651367,232.873489 
	C516.296936,225.964432 518.618896,219.864807 520.967407,213.775436 
	C524.367981,204.958298 524.376160,204.961456 534.631470,206.388916 
	C529.883240,218.460205 525.164673,230.447388 520.454529,242.437881 
	C519.483765,244.909119 518.625671,247.427673 517.576477,249.864471 
	C512.992188,260.511353 502.853912,263.362762 492.645020,256.482574 
	C493.801239,253.939972 494.998413,251.307251 496.282806,248.482742 
	C498.081848,249.125549 499.609802,250.133850 501.105194,250.087723 
	C502.936798,250.031189 505.337708,249.602875 506.381897,248.383942 
	C507.339081,247.266632 507.466827,244.619095 506.846008,243.101624 
	C502.570068,232.649734 497.990173,222.322418 493.538818,211.941833 
	C492.783722,210.180862 492.177216,208.356155 491.537201,206.654251 
	C492.152832,206.291504 492.291809,206.141846 492.440186,206.131866 
	C502.900909,205.428360 502.902771,205.428574 506.717407,214.868881 
	C507.464111,216.716705 508.190796,218.572617 509.049042,220.789368 
z"/>
<path fill="#102E54" opacity="1.000000" stroke="none" 
	d="
M417.033875,232.721252 
	C414.368042,222.476593 417.421600,213.927567 425.315460,208.814819 
	C433.338928,203.618134 445.021820,204.269791 452.392853,210.325165 
	C458.780945,215.573074 461.103516,225.249283 457.958710,233.513275 
	C455.002686,241.281174 447.420319,246.152649 437.864197,246.423492 
	C428.077728,246.700867 421.335205,242.366745 417.033875,232.721252 
M443.398193,235.052307 
	C450.013245,228.317337 448.364594,217.456512 440.329803,215.319077 
	C435.861053,214.130295 432.138550,215.444656 429.607361,219.463791 
	C427.021484,223.569839 427.298035,230.018356 430.143951,233.527512 
	C432.999451,237.048492 437.407867,237.740143 443.398193,235.052307 
z"/>
<path fill="#123055" opacity="1.000000" stroke="none" 
	d="
M208.604675,206.211365 
	C212.001633,206.075882 214.975479,206.075882 218.170319,206.075882 
	C218.495804,207.421448 218.792709,208.648865 219.118118,209.994095 
	C219.676651,209.755554 220.175110,209.651077 220.538635,209.371277 
	C226.385696,204.870499 232.743103,204.359772 239.315918,207.315140 
	C245.769821,210.217041 246.885544,216.119461 246.961853,222.343781 
	C247.055389,229.973602 246.984116,237.605438 246.984116,245.591980 
	C243.158447,245.591980 239.623795,245.591980 235.618988,245.591980 
	C235.618988,238.986435 235.720932,232.527390 235.592072,226.072952 
	C235.445251,218.718872 232.983154,215.475815 227.852097,215.450287 
	C222.549713,215.423904 219.029739,219.744781 218.966248,226.509537 
	C218.907333,232.784912 218.953674,239.061295 218.953674,245.581207 
	C215.033157,245.581207 211.600693,245.581207 208.181564,245.581207 
	C208.181564,232.507660 208.181564,219.427261 208.604675,206.211365 
z"/>
<path fill="#102D52" opacity="1.000000" stroke="none" 
	d="
M340.687317,208.010864 
	C340.924744,207.386002 341.162170,206.761139 342.136169,206.065918 
	C344.913940,205.930405 346.955139,205.865280 348.996338,205.800171 
	C349.447083,205.852844 349.897858,205.905518 350.896240,206.216797 
	C351.690704,207.820312 351.937531,209.165222 352.219543,210.701935 
	C354.579620,209.074158 356.607147,207.675766 358.634674,206.277359 
	C364.144287,204.961121 369.961639,204.349609 374.237366,208.462189 
	C376.988434,211.108276 379.427551,215.290649 379.766541,218.989731 
	C380.565247,227.704941 380.022675,236.543091 380.022675,245.653229 
	C376.335724,245.653229 372.789459,245.653229 368.852448,245.653229 
	C368.852448,238.832245 368.913605,232.047424 368.834595,225.264252 
	C368.761017,218.948273 366.165009,215.712158 361.264313,215.557098 
	C356.021454,215.391205 352.328033,219.184402 352.193726,225.255066 
	C352.043671,232.039139 352.159302,238.829102 352.159302,245.689896 
	C348.224854,245.689896 344.768066,245.689896 341.103271,244.918823 
	C340.824219,242.088028 340.753143,240.028320 340.682068,237.968597 
	C340.732208,236.594391 340.782318,235.220200 340.855957,232.984451 
	C340.825134,228.405609 340.770844,224.688293 340.716522,220.970993 
	C340.761749,217.280640 340.806946,213.590302 340.850250,209.200211 
	C340.794647,208.337280 340.740997,208.174072 340.687317,208.010864 
z"/>
<path fill="#DDF8FA" opacity="1.000000" stroke="none" 
	d="
M122.028809,196.032471 
	C122.333313,194.930496 122.637817,193.828506 123.337860,192.400330 
	C126.568039,193.450867 129.606766,194.524979 132.193405,196.269455 
	C137.073166,199.560516 141.505096,200.119583 146.505035,196.316040 
	C149.216415,194.253433 152.704254,193.211487 155.841827,191.709137 
	C156.536789,192.913712 157.231766,194.118271 157.577362,195.641510 
	C152.786163,198.133698 148.274902,200.181137 143.948059,202.563568 
	C142.768372,203.213135 141.517807,204.805359 141.385162,206.078094 
	C141.030304,209.482956 141.264252,212.949188 141.264252,217.084671 
	C146.672073,214.738281 151.608536,212.596405 156.544983,210.454529 
	C159.014465,213.855148 162.135895,212.635376 164.843231,208.395111 
	C168.621765,202.477112 166.509109,197.703995 163.325333,192.693954 
	C162.754578,191.795792 162.941208,190.416321 162.778122,189.259079 
	C164.285004,189.138824 165.797745,188.895782 167.295471,188.967331 
	C167.795135,188.991211 168.296768,189.785187 168.729202,190.286087 
	C179.115662,202.316589 175.180420,218.283173 162.146790,224.546188 
	C148.765198,230.976425 135.303894,232.638977 121.232185,226.693726 
	C109.277069,221.642731 104.311340,215.266312 105.017128,204.836365 
	C105.352112,199.886292 109.738548,194.311630 115.530548,193.050125 
	C114.599495,196.266769 113.772003,198.815399 113.142433,201.412003 
	C112.736320,203.086975 111.781860,205.556183 112.524574,206.416611 
	C115.253181,209.577744 118.432861,212.416611 121.750069,214.978958 
	C123.952858,216.680481 125.359146,215.190887 126.316391,212.504913 
	C130.071915,213.701813 133.427841,215.227676 137.203781,216.944504 
	C137.203781,213.580917 136.949188,210.905502 137.265991,208.299530 
	C137.695541,204.765976 136.338684,202.892349 133.084961,201.570984 
	C129.277740,200.024841 125.703888,197.904007 122.028809,196.032471 
M169.134399,215.032837 
	C169.134399,215.032837 169.207535,215.126984 169.752686,214.803879 
	C169.936920,214.207794 170.121140,213.611725 170.583527,212.726318 
	C170.732285,212.504105 170.869232,212.274826 171.652161,211.509262 
	C171.652161,208.081284 171.652161,204.653320 171.652161,201.225342 
	C171.221741,201.137665 170.791306,201.049988 170.360886,200.962311 
	C169.501389,203.605423 168.641891,206.248550 167.399796,209.151138 
	C167.173126,209.376312 167.033081,209.646423 166.440613,210.219162 
	C165.974106,210.814163 165.507584,211.409164 164.741577,212.564835 
	C163.447723,213.610641 162.153870,214.656448 160.282227,215.857864 
	C159.827927,216.212708 159.373627,216.567551 158.920853,216.927704 
	C158.920853,216.927704 158.904602,216.894424 158.176300,216.970947 
	C147.549820,222.759613 136.441071,223.150192 124.702324,219.791916 
	C124.702324,219.791916 124.363411,219.799118 123.925781,219.261475 
	C122.280464,218.495331 120.635155,217.729187 118.710777,216.803436 
	C118.710777,216.803436 118.389297,216.800049 117.977592,216.298691 
	C117.380226,216.112106 116.782860,215.925537 116.259209,215.780945 
	C116.259209,215.780945 116.257690,215.696121 116.142319,215.063293 
	C115.165787,214.231140 114.189255,213.398972 113.159470,212.269608 
	C113.159470,212.269608 112.983177,212.024521 112.790253,211.325256 
	C111.569550,208.102661 110.348854,204.880066 109.165634,201.756439 
	C105.447868,205.328217 106.004906,211.109665 110.940407,216.728729 
	C111.073860,216.950043 111.262100,217.104584 111.683937,217.802536 
	C112.121651,218.192947 112.559364,218.583344 113.579964,219.256577 
	C114.972427,220.220306 116.364891,221.184052 118.197067,222.712540 
	C123.038895,224.369659 127.772369,226.872925 132.744858,227.509644 
	C143.444946,228.879776 153.935486,227.762314 163.037323,221.057373 
	C163.037323,221.057373 163.056396,221.074829 163.671631,220.992233 
	C164.186401,220.407166 164.701187,219.822113 165.207214,219.089371 
	C165.207214,219.089371 165.161987,219.230225 165.753357,219.184326 
	C166.154114,218.791138 166.554871,218.397949 167.297119,217.624283 
	C167.597076,217.212204 167.897034,216.800125 168.679810,216.112076 
	C168.840744,215.790939 169.001678,215.469803 169.134399,215.032837 
z"/>
<path fill="#112F52" opacity="1.000000" stroke="none" 
	d="
M390.850067,229.068085 
	C390.850433,224.478500 390.850433,220.335678 390.850433,215.754883 
	C388.896271,215.647827 387.154877,215.552429 385.066101,215.438004 
	C385.066101,212.755783 385.066101,210.021759 385.066101,207.147644 
	C386.735565,207.010803 388.352478,206.878281 390.464294,206.705200 
	C390.648224,203.289078 390.822327,200.055145 391.010834,196.553406 
	C394.669342,196.553406 398.079773,196.553406 401.963379,196.553406 
	C401.963379,199.890274 401.963379,203.134842 401.963379,206.666962 
	C405.514587,206.666962 408.608093,206.666962 412.042328,206.666962 
	C412.042328,209.654022 412.042328,212.354950 412.042328,215.607086 
	C408.789185,215.607086 405.722778,215.607086 402.294189,215.607086 
	C402.294189,221.577835 402.052765,227.025848 402.370789,232.441025 
	C402.623657,236.746246 404.453522,237.322144 411.157593,235.750870 
	C412.006195,238.197372 412.862915,240.667252 413.778778,243.307617 
	C408.245056,247.161972 402.398285,247.621567 396.716522,244.788864 
	C390.431763,241.655518 390.698792,235.429840 390.850067,229.068085 
M403.964081,239.485321 
	C402.195343,240.177887 400.426605,240.870468 398.657867,241.563034 
	C400.979889,242.985535 402.775421,243.322266 404.566345,243.299103 
	C406.540436,243.273560 408.520264,242.970947 410.463440,242.606857 
	C410.623077,242.576965 410.637512,240.490768 410.523132,240.470581 
	C408.596252,240.130112 406.638123,239.966125 403.964081,239.485321 
z"/>
<path fill="#112F52" opacity="1.000000" stroke="none" 
	d="
M478.446289,220.823395 
	C477.850189,227.085800 477.433960,233.003616 477.106750,238.926346 
	C476.989746,241.044540 477.087982,243.174622 477.087982,245.566696 
	C473.251404,245.566696 469.833130,245.566696 466.088745,245.566696 
	C466.088745,232.610611 466.088745,219.569550 466.088745,206.171280 
	C469.550629,206.171280 472.950745,206.171280 476.744720,206.171280 
	C476.920258,207.472702 477.122711,208.973831 477.252960,209.939575 
	C481.133514,208.226974 485.019470,206.511978 489.618835,204.482147 
	C489.618835,209.126740 489.618835,212.350464 489.618835,215.574173 
	C489.300415,215.209473 488.982025,214.844772 488.663605,214.480072 
	C485.329498,216.480301 481.995392,218.480530 478.446289,220.823395 
z"/>
<path fill="#153156" opacity="1.000000" stroke="none" 
	d="
M268.666901,225.000031 
	C268.823517,225.366608 268.980164,225.733170 269.094635,226.817200 
	C269.716644,229.172882 270.380829,230.811066 271.045044,232.449249 
	C271.713257,232.014816 272.381470,231.580353 273.049683,231.145874 
	C273.049683,231.145874 273.002289,231.069061 273.398315,230.993057 
	C274.339233,230.563553 275.318115,230.258163 275.363464,229.849258 
	C275.963623,224.437424 282.515686,221.407089 281.194855,215.208923 
	C281.056946,214.561768 281.627014,213.493698 282.198486,213.013290 
	C284.384064,211.175964 286.704498,209.499023 288.964691,207.769760 
	C289.276672,209.308624 289.712463,211.458267 290.148254,213.607910 
	C290.148254,213.607910 290.221375,213.843140 289.763184,213.958923 
	C287.739197,216.379608 285.762329,218.508835 284.687744,221.023621 
	C281.904663,227.536865 277.318085,233.507812 278.071381,241.190079 
	C278.071381,241.190079 278.065155,241.617340 277.653107,241.975677 
	C270.993439,245.276001 266.984619,244.476151 265.083923,239.692108 
	C261.678192,231.119827 258.325623,222.523544 255.158768,213.861267 
	C254.344193,211.633163 252.167252,208.346207 256.284271,207.270187 
	C259.884918,206.329102 260.931213,209.620880 261.874786,212.330612 
	C262.086029,212.937271 261.763306,213.793701 262.075348,214.291168 
	C264.303009,217.842285 263.190186,223.464722 268.666901,225.000031 
z"/>
<path fill="#102D52" opacity="1.000000" stroke="none" 
	d="
M293.874603,223.019424 
	C297.277069,209.500916 306.994598,202.977722 318.660339,206.599335 
	C317.610687,207.160141 316.709717,207.156143 316.035645,207.545212 
	C314.658813,208.339951 313.404022,209.346146 312.098999,210.265259 
	C313.395569,211.233948 314.701660,212.190277 315.982849,213.178894 
	C316.362061,213.471512 316.671082,213.855057 316.605988,214.209183 
	C309.254547,214.234039 306.658783,216.273529 305.671631,222.659058 
	C308.456604,222.801468 311.225861,222.943069 313.838104,223.369003 
	C312.886230,224.515594 312.091339,225.377869 311.166656,226.380966 
	C313.356476,227.466782 315.143219,228.352722 316.512756,229.362991 
	C312.628937,230.000031 309.162323,230.512711 305.571533,231.142517 
	C305.604187,231.505157 305.760956,231.750702 306.131561,232.247498 
	C306.637756,233.301178 306.930115,234.103592 306.847260,234.905075 
	C304.268372,232.790054 302.064667,230.675964 299.688812,228.396759 
	C296.779907,229.658829 296.631683,231.595398 298.328583,234.496460 
	C299.307953,236.170792 299.395905,238.366531 299.570557,240.163437 
	C294.807892,235.180557 293.839996,229.258850 293.874603,223.019424 
z"/>
<path fill="#102D52" opacity="1.000000" stroke="none" 
	d="
M155.992126,191.438538 
	C152.704254,193.211487 149.216415,194.253433 146.505035,196.316040 
	C141.505096,200.119583 137.073166,199.560516 132.193405,196.269455 
	C129.606766,194.524979 126.568039,193.450867 123.373856,192.055786 
	C123.025681,191.217285 122.746613,189.841202 123.092178,189.660629 
	C127.953049,187.120895 132.885117,184.714783 137.840195,182.361069 
	C138.527756,182.034470 139.592743,181.829727 140.208755,182.130417 
	C145.702698,184.812210 151.135483,187.619354 156.577286,190.407120 
	C156.623306,190.430679 156.586945,190.719650 156.515106,190.840897 
	C156.435028,190.976074 156.270309,191.061081 155.992126,191.438538 
z"/>
<path fill="#4ED5E3" opacity="1.000000" stroke="none" 
	d="
M596.350891,168.858643 
	C596.259033,168.467346 596.167175,168.076019 596.437500,167.328003 
	C600.953674,164.916779 605.204407,163.032913 609.229004,160.750275 
	C612.108948,159.116852 614.511536,158.925583 617.502197,160.643982 
	C621.785889,163.105392 626.382141,165.022858 630.844971,167.172577 
	C630.819702,167.547607 630.794373,167.922623 630.365356,168.593964 
	C625.683716,171.080643 621.533020,173.602264 617.072388,175.317703 
	C614.932678,176.140564 611.956787,176.102692 609.797607,175.290314 
	C605.164551,173.547180 600.815979,171.048172 596.350891,168.858643 
z"/>
<path fill="#102D52" opacity="1.000000" stroke="none" 
	d="
M189.379562,245.801392 
	C188.153091,245.036850 186.694412,244.272598 186.688187,243.496704 
	C186.556641,227.060379 186.588593,210.622742 186.588593,193.891418 
	C190.616257,193.891418 194.186508,193.891418 198.090942,193.891418 
	C198.090942,211.059952 198.090942,228.119934 198.090942,245.796234 
	C195.327316,245.796234 192.575546,245.796234 189.379562,245.801392 
M197.000107,213.644073 
	C196.525162,208.252853 196.050217,202.861633 195.566742,197.373581 
	C192.473938,196.999786 189.367096,195.959167 189.039322,200.449600 
	C188.618042,206.220688 188.061554,212.002884 188.074783,217.779129 
	C188.089905,224.388504 188.746033,230.993958 188.962875,237.606384 
	C189.060867,240.594208 189.107193,243.818024 192.930954,243.810364 
	C196.731842,243.802765 196.937408,240.413498 196.969925,237.558975 
	C197.057053,229.911240 197.000046,222.261856 197.000107,213.644073 
z"/>
<path fill="#153156" opacity="1.000000" stroke="none" 
	d="
M299.885071,240.327606 
	C299.395905,238.366531 299.307953,236.170792 298.328583,234.496460 
	C296.631683,231.595398 296.779907,229.658829 299.688812,228.396759 
	C302.064667,230.675964 304.268372,232.790054 307.227814,234.910065 
	C314.241730,238.440903 320.147797,238.072678 325.622772,233.068314 
	C327.844635,234.972382 329.923431,236.753830 332.812683,239.229828 
	C331.052887,240.585739 329.504791,241.778519 327.956726,242.971283 
	C327.956726,242.971283 327.993378,243.004578 327.630432,243.044556 
	C324.518066,244.143890 321.768646,245.203262 319.019226,246.262634 
	C318.267609,246.270325 317.515961,246.278015 315.979034,246.292938 
	C309.388702,246.108978 303.984314,244.890961 299.885071,240.327606 
z"/>
<path fill="#E4EFF4" opacity="1.000000" stroke="none" 
	d="
M328.328461,242.988007 
	C329.504791,241.778519 331.052887,240.585739 332.812683,239.229828 
	C329.923431,236.753830 327.844635,234.972382 325.622772,233.068314 
	C320.147797,238.072678 314.241730,238.440903 307.602997,234.910980 
	C306.930115,234.103592 306.637756,233.301178 306.141357,231.989868 
	C305.856750,231.329117 305.776245,231.177261 305.695709,231.025421 
	C309.162323,230.512711 312.628937,230.000031 316.865906,229.499146 
	C319.113708,229.421341 320.591125,229.331726 322.520386,229.354645 
	C326.684967,229.467194 330.397736,229.467194 334.980255,229.467194 
	C334.150146,224.477432 333.461273,220.336655 332.862701,216.111084 
	C332.952972,216.026291 333.127289,215.850281 333.127289,215.850281 
	C335.428375,217.552063 337.729462,219.253830 340.373535,220.963303 
	C340.770844,224.688293 340.825134,228.405609 340.781921,232.577423 
	C340.362885,232.952484 340.042419,232.868347 339.719635,232.794342 
	C337.783203,232.350388 336.428223,227.967209 334.199738,231.272507 
	C333.076965,232.937820 334.003754,235.984970 334.003754,238.407272 
	C334.618835,238.725418 335.233917,239.043564 335.848999,239.361694 
	C333.466064,240.576035 331.083130,241.790375 328.328461,242.988007 
z"/>
<path fill="#1A355A" opacity="1.000000" stroke="none" 
	d="
M322.068542,229.242111 
	C320.591125,229.331726 319.113708,229.421341 317.283112,229.374802 
	C315.143219,228.352722 313.356476,227.466782 311.166656,226.380966 
	C312.091339,225.377869 312.886230,224.515594 314.260315,223.276672 
	C316.561798,222.963699 318.284058,223.027374 320.060974,223.419373 
	C321.074280,223.493225 322.032898,223.238724 323.107910,222.606659 
	C323.418396,217.800125 320.308502,215.926483 317.012268,214.196930 
	C316.671082,213.855057 316.362061,213.471512 315.982849,213.178894 
	C314.701660,212.190277 313.395569,211.233948 312.098999,210.265259 
	C313.404022,209.346146 314.658813,208.339951 316.035645,207.545212 
	C316.709717,207.156143 317.610687,207.160141 318.818970,206.948410 
	C319.629333,206.925735 320.029694,206.940903 320.773560,207.378448 
	C324.170715,209.502136 327.224396,211.203445 330.278046,212.904755 
	C330.278046,212.904755 330.626495,212.915985 330.826843,213.254211 
	C331.298462,213.850266 331.569702,214.108063 331.840942,214.365860 
	C331.840942,214.365860 331.904419,214.772842 331.921417,214.868744 
	C331.938416,214.964645 331.665497,214.988480 331.459961,215.306641 
	C331.465118,217.530594 331.616364,219.445236 331.898438,221.340408 
	C332.550232,225.719910 331.450836,226.933441 327.144806,226.142944 
	C324.396301,225.638397 322.699463,226.468750 322.068542,229.242111 
z"/>
<path fill="#4ED5E3" opacity="1.000000" stroke="none" 
	d="
M615.937561,195.740692 
	C615.644165,195.694778 615.407349,195.553711 615.148987,194.689270 
	C615.081482,191.909164 615.345093,189.722137 615.051575,187.612640 
	C614.398071,182.916550 616.351196,180.204239 620.671875,178.505127 
	C624.509460,176.996002 628.135925,174.950073 631.855591,173.141083 
	C631.855591,173.141083 631.891357,173.034225 631.891602,173.542114 
	C631.873657,178.664047 631.855469,183.278107 631.837219,187.892151 
	C631.837219,187.892151 631.974365,187.895096 631.562744,187.926971 
	C626.079956,190.552811 621.008789,193.146759 615.937561,195.740692 
z"/>
<path fill="#D7FCFD" opacity="1.000000" stroke="none" 
	d="
M631.904480,172.739716 
	C628.135925,174.950073 624.509460,176.996002 620.671875,178.505127 
	C616.351196,180.204239 614.398071,182.916550 615.051575,187.612640 
	C615.345093,189.722137 615.081482,191.909164 615.024170,194.518921 
	C613.965027,194.988693 612.952454,195.000580 611.490112,194.551361 
	C611.028320,190.800980 611.320435,187.469437 610.871643,184.240875 
	C610.658264,182.705505 609.033203,181.366348 607.845703,179.685776 
	C606.457520,178.920258 605.271301,178.407272 603.898682,177.669434 
	C603.163574,177.272232 602.614746,177.099884 601.859558,176.687561 
	C600.859375,176.189774 600.065613,175.931976 599.059814,175.431046 
	C597.334534,174.583054 595.821167,173.978195 594.307861,173.373352 
	C594.767761,171.998993 595.227600,170.624649 596.019165,169.054474 
	C600.815979,171.048172 605.164551,173.547180 609.797607,175.290314 
	C611.956787,176.102692 614.932678,176.140564 617.072388,175.317703 
	C621.533020,173.602264 625.683716,171.080643 630.306274,168.870255 
	C631.085083,170.012939 631.519226,171.175644 631.904480,172.739716 
z"/>
<path fill="#153156" opacity="1.000000" stroke="none" 
	d="
M156.574509,210.448975 
	C151.608536,212.596405 146.672073,214.738281 141.264252,217.084671 
	C141.264252,212.949188 141.030304,209.482956 141.385162,206.078094 
	C141.517807,204.805359 142.768372,203.213135 143.948059,202.563568 
	C148.274902,200.181137 152.786163,198.133698 157.590179,195.991455 
	C157.968536,196.194733 157.984741,196.366714 157.975647,197.148468 
	C158.003403,198.498566 158.056458,199.238907 158.109528,199.979248 
	C158.062531,200.435638 158.015533,200.892029 157.966980,202.102188 
	C157.531448,205.388016 157.097473,207.920059 156.663483,210.452118 
	C156.663483,210.452118 156.604034,210.443436 156.574509,210.448975 
z"/>
<path fill="#112F52" opacity="1.000000" stroke="none" 
	d="
M121.669937,196.225220 
	C125.703888,197.904007 129.277740,200.024841 133.084961,201.570984 
	C136.338684,202.892349 137.695541,204.765976 137.265991,208.299530 
	C136.949188,210.905502 137.203781,213.580917 137.203781,216.944504 
	C133.427841,215.227676 130.071915,213.701813 126.360703,212.160538 
	C125.237915,211.784805 124.470436,211.424500 123.144829,210.646698 
	C122.019325,207.818130 121.451950,205.407059 120.884575,202.996002 
	C121.026741,200.803314 121.168907,198.610641 121.669937,196.225220 
z"/>
<path fill="#112F52" opacity="1.000000" stroke="none" 
	d="
M268.622070,224.638779 
	C263.190186,223.464722 264.303009,217.842285 262.075348,214.291168 
	C261.763306,213.793701 262.086029,212.937271 261.874786,212.330612 
	C260.931213,209.620880 259.884918,206.329102 256.284271,207.270187 
	C252.167252,208.346207 254.344193,211.633163 255.158768,213.861267 
	C258.325623,222.523544 261.678192,231.119827 265.083923,239.692108 
	C266.984619,244.476151 270.993439,245.276001 277.575073,242.174576 
	C278.227570,245.095551 276.744781,246.062149 273.795776,245.957687 
	C264.148560,245.616058 266.448456,247.515305 262.936279,238.673325 
	C258.717194,228.051758 254.572067,217.400818 250.053360,205.892792 
	C253.804535,205.892792 257.047699,205.658524 260.220428,206.028259 
	C261.239746,206.147049 262.462219,207.705261 262.924622,208.869843 
	C264.942749,213.952560 266.715454,219.132736 268.622070,224.638779 
z"/>
<path fill="#112F52" opacity="1.000000" stroke="none" 
	d="
M290.427429,213.340485 
	C289.712463,211.458267 289.276672,209.308624 288.964691,207.769760 
	C286.704498,209.499023 284.384064,211.175964 282.198486,213.013290 
	C281.627014,213.493698 281.056946,214.561768 281.194855,215.208923 
	C282.515686,221.407089 275.963623,224.437424 275.363464,229.849258 
	C275.318115,230.258163 274.339233,230.563553 273.438263,230.972061 
	C275.882751,223.439148 278.605957,215.820709 281.571625,208.297867 
	C281.991638,207.232391 283.521240,206.072128 284.660156,205.928284 
	C287.392303,205.583221 290.197510,205.816696 293.621216,205.816696 
	C292.494598,208.621567 291.600586,210.847321 290.427429,213.340485 
z"/>
<path fill="#4ED5E3" opacity="1.000000" stroke="none" 
	d="
M608.047607,179.938293 
	C609.033203,181.366348 610.658264,182.705505 610.871643,184.240875 
	C611.320435,187.469437 611.028320,190.800980 611.110168,194.550171 
	C610.861206,195.368851 610.352478,196.088211 610.250854,196.034668 
	C604.948914,193.242203 599.681580,190.384216 594.268066,186.807678 
	C594.096497,183.394867 594.067322,180.707535 594.038086,178.020203 
	C594.085815,177.256943 594.133484,176.493698 594.201050,175.124084 
	C594.220886,174.517715 594.160767,174.058533 594.160767,174.058533 
	C594.160767,174.058533 594.271790,173.722595 594.289795,173.547974 
	C595.821167,173.978195 597.334534,174.583054 598.988525,175.520126 
	C599.129211,175.852341 598.983337,176.027847 598.597656,176.072159 
	C597.478699,177.249359 596.256165,178.316223 596.092834,179.526031 
	C595.132446,186.642548 601.260376,192.382233 610.759216,192.288254 
	C609.779907,188.049896 608.857849,184.059235 607.964233,180.036438 
	C607.992737,180.004318 608.047607,179.938309 608.047607,179.938293 
z"/>
<path fill="#112F52" opacity="1.000000" stroke="none" 
	d="
M278.402100,241.072693 
	C277.318085,233.507812 281.904663,227.536865 284.687744,221.023621 
	C285.762329,218.508835 287.739197,216.379608 289.667908,214.036987 
	C286.264832,222.984604 282.498840,231.969955 278.402100,241.072693 
z"/>
<path fill="#D7FCFD" opacity="1.000000" stroke="none" 
	d="
M630.851685,166.816437 
	C626.382141,165.022858 621.785889,163.105392 617.502197,160.643982 
	C614.511536,158.925583 612.108948,159.116852 609.229004,160.750275 
	C605.204407,163.032913 600.953674,164.916779 596.450195,167.026443 
	C598.013000,165.449814 599.780212,163.592484 601.875244,162.244843 
	C604.345642,160.655685 607.093323,159.494568 609.732727,158.171799 
	C612.753235,156.658081 615.419678,156.490280 618.455505,158.789398 
	C622.313477,161.711182 626.699829,163.935318 630.851685,166.816437 
z"/>
<path fill="#E4EFF4" opacity="1.000000" stroke="none" 
	d="
M299.570557,240.163437 
	C303.984314,244.890961 309.388702,246.108978 315.618530,246.405106 
	C313.560730,248.030884 304.110931,247.495987 301.959442,245.082886 
	C298.511597,241.215820 295.002869,237.161835 292.734589,232.584839 
	C291.578400,230.251938 293.066437,226.608566 293.616943,223.288483 
	C293.839996,229.258850 294.807892,235.180557 299.570557,240.163437 
z"/>
<path fill="#D7FCFD" opacity="1.000000" stroke="none" 
	d="
M616.137634,196.055634 
	C621.008789,193.146759 626.079956,190.552811 631.499390,187.900696 
	C630.086426,189.523163 628.582947,191.712128 626.504028,192.766220 
	C623.323669,194.378784 619.746460,195.208542 616.137634,196.055634 
z"/>
<path fill="#D7FCFD" opacity="1.000000" stroke="none" 
	d="
M632.215332,187.753555 
	C631.855469,183.278107 631.873657,178.664047 631.893372,173.598404 
	C632.463684,173.390472 633.538025,173.660385 633.526917,173.873947 
	C633.288940,178.458084 632.929443,183.035904 632.215332,187.753555 
z"/>
<path fill="#E4EFF4" opacity="1.000000" stroke="none" 
	d="
M358.221008,206.178558 
	C356.607147,207.675766 354.579620,209.074158 352.219543,210.701935 
	C351.937531,209.165222 351.690704,207.820312 351.237183,206.187958 
	C353.289429,205.960251 355.548370,206.019989 358.221008,206.178558 
z"/>
<path fill="#102D52" opacity="1.000000" stroke="none" 
	d="
M330.161133,212.583618 
	C327.224396,211.203445 324.170715,209.502136 321.061951,207.463593 
	C322.620422,207.607910 324.234039,208.089462 326.112183,208.723572 
	C326.376709,208.876129 326.249786,208.796539 326.249786,208.796539 
	C326.408813,208.916855 326.567871,209.037186 326.939484,209.494247 
	C327.152069,209.830994 327.499786,210.042419 327.499786,210.042419 
	C328.347931,210.782440 329.196075,211.522446 330.161133,212.583618 
z"/>
<path fill="#F2F8F9" opacity="1.000000" stroke="none" 
	d="
M120.513489,203.090912 
	C121.451950,205.407059 122.019325,207.818130 122.830948,210.511353 
	C121.729553,210.207489 119.348228,209.764984 119.243164,209.006973 
	C118.984932,207.143936 119.774361,205.135666 120.513489,203.090912 
z"/>
<path fill="#D7FCFD" opacity="1.000000" stroke="none" 
	d="
M593.649658,178.094376 
	C594.067322,180.707535 594.096497,183.394867 594.077148,186.526794 
	C590.399353,184.331253 591.779846,181.254288 593.649658,178.094376 
z"/>
<path fill="#E4EFF4" opacity="1.000000" stroke="none" 
	d="
M319.316956,246.494751 
	C321.768646,245.203262 324.518066,244.143890 327.621552,243.021713 
	C326.939911,248.100876 323.110168,247.042999 319.316956,246.494751 
z"/>
<path fill="#E4EFF4" opacity="1.000000" stroke="none" 
	d="
M340.387421,238.032913 
	C340.753143,240.028320 340.824219,242.088028 340.826508,244.585327 
	C337.429626,243.012604 339.702972,240.464493 340.387421,238.032913 
z"/>
<path fill="#DDF8FA" opacity="1.000000" stroke="none" 
	d="
M157.041306,210.610474 
	C157.097473,207.920059 157.531448,205.388016 158.048126,202.438782 
	C158.682693,204.394485 159.366257,206.750946 159.666229,209.155258 
	C159.720825,209.592850 158.208237,210.225967 157.041306,210.610474 
z"/>
<path fill="#112F52" opacity="1.000000" stroke="none" 
	d="
M272.697266,231.412613 
	C272.381470,231.580353 271.713257,232.014816 271.045044,232.449249 
	C270.380829,230.811066 269.716644,229.172882 269.075623,227.119781 
	C270.180786,228.363037 271.262817,230.021194 272.697266,231.412613 
z"/>
<path fill="#E4EFF4" opacity="1.000000" stroke="none" 
	d="
M348.824097,205.523071 
	C346.955139,205.865280 344.913940,205.930405 342.441467,205.914581 
	C344.224060,205.637741 346.437988,205.441864 348.824097,205.523071 
z"/>
<path fill="#DDF8FA" opacity="1.000000" stroke="none" 
	d="
M158.336548,199.792664 
	C158.056458,199.238907 158.003403,198.498566 158.048172,197.397217 
	C158.285202,197.892853 158.424377,198.749466 158.336548,199.792664 
z"/>
<path fill="#E4EFF4" opacity="1.000000" stroke="none" 
	d="
M332.065430,215.015976 
	C332.478882,215.127777 332.711395,215.273926 333.008667,215.678040 
	C333.127289,215.850281 332.952972,216.026291 332.635468,215.952026 
	C332.100464,215.581345 331.882965,215.284912 331.665497,214.988495 
	C331.665497,214.988480 331.938416,214.964645 332.065430,215.015976 
z"/>
<path fill="#1A355A" opacity="1.000000" stroke="none" 
	d="
M326.219482,208.858398 
	C326.249786,208.796539 326.376709,208.876129 326.410400,208.904755 
	C326.444061,208.933380 326.189178,208.920258 326.219482,208.858398 
z"/>
<path fill="#E4EFF4" opacity="1.000000" stroke="none" 
	d="
M331.807678,214.079926 
	C331.569702,214.108063 331.298462,213.850266 330.994049,213.303558 
	C331.232056,213.274445 331.503235,213.534225 331.807678,214.079926 
z"/>
<path fill="#D7FCFD" opacity="1.000000" stroke="none" 
	d="
M593.962280,174.110382 
	C594.160767,174.058533 594.220886,174.517715 594.167358,174.742599 
	C593.916321,174.807190 593.712463,174.653152 593.533630,174.474167 
	C593.520020,174.460510 593.682983,174.270355 593.962280,174.110382 
z"/>
<path fill="#E4EFF4" opacity="1.000000" stroke="none" 
	d="
M340.545593,208.101776 
	C340.740997,208.174072 340.794647,208.337280 340.768921,208.745636 
	C340.594299,208.724762 340.499084,208.458725 340.545593,208.101776 
z"/>
<path fill="#1A355A" opacity="1.000000" stroke="none" 
	d="
M327.473907,209.921448 
	C327.499786,210.042419 327.152069,209.830994 327.080811,209.757874 
	C327.009583,209.684753 327.448029,209.800491 327.473907,209.921448 
z"/>
<path fill="#EDFDFC" opacity="1.000000" stroke="none" 
	d="
M664.975586,215.100189 
	C670.404297,215.501099 673.700806,218.509109 674.024902,223.170334 
	C674.263367,226.599747 673.436951,231.125259 671.251099,233.400497 
	C669.250061,235.483429 664.627441,236.217178 661.454163,235.708908 
	C657.484009,235.072998 655.335388,231.396149 655.045776,227.203842 
	C654.742981,222.821609 655.739075,218.864288 659.888611,216.543442 
	C661.285461,215.762177 663.006958,215.561234 664.975586,215.100189 
z"/>
<path fill="#F2F8F9" opacity="1.000000" stroke="none" 
	d="
M443.085938,235.280655 
	C437.407867,237.740143 432.999451,237.048492 430.143951,233.527512 
	C427.298035,230.018356 427.021484,223.569839 429.607361,219.463791 
	C432.138550,215.444656 435.861053,214.130295 440.329803,215.319077 
	C448.364594,217.456512 450.013245,228.317337 443.085938,235.280655 
z"/>
<path fill="#4FD6E4" opacity="1.000000" stroke="none" 
	d="
M163.076324,221.072540 
	C153.935486,227.762314 143.444946,228.879776 132.744858,227.509644 
	C127.772369,226.872925 123.038895,224.369659 118.395584,222.375031 
	C120.463188,220.514084 124.652817,226.068665 125.010086,219.934006 
	C136.441071,223.150192 147.549820,222.759613 158.527496,217.286652 
	C156.628937,219.345840 154.379166,221.089325 152.129395,222.832825 
	C152.344193,223.150848 152.558990,223.468857 152.773804,223.786880 
	C156.207977,222.882111 159.642151,221.977325 163.076324,221.072540 
z"/>
<path fill="#2EE2E6" opacity="1.000000" stroke="none" 
	d="
M163.056824,221.064957 
	C159.642151,221.977325 156.207977,222.882111 152.773804,223.786880 
	C152.558990,223.468857 152.344193,223.150848 152.129395,222.832825 
	C154.379166,221.089325 156.628937,219.345840 158.891647,217.248383 
	C158.904602,216.894424 158.920853,216.927704 159.246918,216.932465 
	C160.001999,216.525574 160.431000,216.113907 160.860016,215.702240 
	C162.153870,214.656448 163.447723,213.610641 165.210480,212.236649 
	C166.112808,211.259445 166.546234,210.610443 166.979660,209.961441 
	C167.033081,209.646423 167.173126,209.376312 167.929962,209.021347 
	C169.225769,208.288696 169.991425,207.685852 170.994385,206.896164 
	C170.994385,208.803482 170.994385,210.420990 170.994385,212.038483 
	C170.869232,212.274826 170.732285,212.504105 170.134125,213.007217 
	C169.525650,213.901077 169.366592,214.514023 169.207520,215.126984 
	C169.207535,215.126984 169.134399,215.032837 168.871521,215.185776 
	C168.471420,215.688492 168.334213,216.038269 168.197006,216.388046 
	C167.897034,216.800125 167.597076,217.212204 166.823212,217.831848 
	C165.953537,218.436340 165.557770,218.833282 165.161987,219.230225 
	C165.161987,219.230225 165.207214,219.089371 164.865845,219.120377 
	C164.035110,219.792526 163.545746,220.433670 163.056396,221.074829 
	C163.056396,221.074829 163.037323,221.057373 163.056824,221.064957 
z"/>
<path fill="#2EE2E6" opacity="1.000000" stroke="none" 
	d="
M124.856201,219.862961 
	C124.652817,226.068665 120.463188,220.514084 118.175735,222.092651 
	C116.364891,221.184052 114.972427,220.220306 113.244690,218.789246 
	C112.441330,217.945389 111.973236,217.568878 111.505142,217.192368 
	C111.262100,217.104584 111.073860,216.950043 110.912193,216.175690 
	C110.443298,213.757935 109.532364,211.618866 112.983177,212.024521 
	C112.983177,212.024521 113.159470,212.269608 113.151230,212.804581 
	C114.181221,214.125076 115.219460,214.910599 116.257690,215.696121 
	C116.257690,215.696121 116.259209,215.780945 116.340897,216.089600 
	C117.078163,216.532166 117.733734,216.666107 118.389297,216.800049 
	C118.389297,216.800049 118.710777,216.803436 118.904312,217.247253 
	C120.853043,218.393738 122.608223,219.096436 124.363403,219.799133 
	C124.363411,219.799118 124.702324,219.791916 124.856201,219.862961 
z"/>
<path fill="#4ED5E3" opacity="1.000000" stroke="none" 
	d="
M112.886719,211.674896 
	C109.532364,211.618866 110.443298,213.757935 110.845490,216.002670 
	C106.004906,211.109665 105.447868,205.328217 109.165634,201.756439 
	C110.348854,204.880066 111.569550,208.102661 112.886719,211.674896 
z"/>
<path fill="#4ED5E3" opacity="1.000000" stroke="none" 
	d="
M171.323273,211.773865 
	C170.994385,210.420990 170.994385,208.803482 170.994385,206.896164 
	C169.991425,207.685852 169.225769,208.288696 168.121246,208.891602 
	C168.641891,206.248550 169.501389,203.605423 170.360886,200.962311 
	C170.791306,201.049988 171.221741,201.137665 171.652161,201.225342 
	C171.652161,204.653320 171.652161,208.081284 171.323273,211.773865 
z"/>
<path fill="#4FD6E4" opacity="1.000000" stroke="none" 
	d="
M124.144592,219.530304 
	C122.608223,219.096436 120.853043,218.393738 119.043854,217.327057 
	C120.635155,217.729187 122.280464,218.495331 124.144592,219.530304 
z"/>
<path fill="#4ED5E3" opacity="1.000000" stroke="none" 
	d="
M116.200005,215.379700 
	C115.219460,214.910599 114.181221,214.125076 113.177856,212.953186 
	C114.189255,213.398972 115.165787,214.231140 116.200005,215.379700 
z"/>
<path fill="#4FD6E4" opacity="1.000000" stroke="none" 
	d="
M163.364014,221.033539 
	C163.545746,220.433670 164.035110,219.792526 164.870209,219.194214 
	C164.701187,219.822113 164.186401,220.407166 163.364014,221.033539 
z"/>
<path fill="#4ED5E3" opacity="1.000000" stroke="none" 
	d="
M166.710144,210.090302 
	C166.546234,210.610443 166.112808,211.259445 165.360229,211.956314 
	C165.507584,211.409164 165.974106,210.814163 166.710144,210.090302 
z"/>
<path fill="#4ED5E3" opacity="1.000000" stroke="none" 
	d="
M111.594543,217.497452 
	C111.973236,217.568878 112.441330,217.945389 112.953255,218.647827 
	C112.559364,218.583344 112.121651,218.192947 111.594543,217.497452 
z"/>
<path fill="#4ED5E3" opacity="1.000000" stroke="none" 
	d="
M165.457672,219.207275 
	C165.557770,218.833282 165.953537,218.436340 166.652466,218.022095 
	C166.554871,218.397949 166.154114,218.791138 165.457672,219.207275 
z"/>
<path fill="#4FD6E4" opacity="1.000000" stroke="none" 
	d="
M160.571121,215.780060 
	C160.431000,216.113907 160.001999,216.525574 159.246155,216.929825 
	C159.373627,216.567551 159.827927,216.212708 160.571121,215.780060 
z"/>
<path fill="#4ED5E3" opacity="1.000000" stroke="none" 
	d="
M118.183441,216.549362 
	C117.733734,216.666107 117.078163,216.532166 116.304039,216.068604 
	C116.782860,215.925537 117.380226,216.112106 118.183441,216.549362 
z"/>
<path fill="#4ED5E3" opacity="1.000000" stroke="none" 
	d="
M169.480103,214.965424 
	C169.366592,214.514023 169.525650,213.901077 169.995026,213.151886 
	C170.121140,213.611725 169.936920,214.207794 169.480103,214.965424 
z"/>
<path fill="#4ED5E3" opacity="1.000000" stroke="none" 
	d="
M168.438416,216.250061 
	C168.334213,216.038269 168.471420,215.688492 168.885620,215.243683 
	C169.001678,215.469803 168.840744,215.790939 168.438416,216.250061 
z"/>
<path fill="#123055" opacity="1.000000" stroke="none" 
	d="
M404.325500,239.624161 
	C406.638123,239.966125 408.596252,240.130112 410.523132,240.470581 
	C410.637512,240.490768 410.623077,242.576965 410.463440,242.606857 
	C408.520264,242.970947 406.540436,243.273560 404.566345,243.299103 
	C402.775421,243.322266 400.979889,242.985535 398.657867,241.563034 
	C400.426605,240.870468 402.195343,240.177887 404.325500,239.624161 
z"/>
<path fill="#E4EFF4" opacity="1.000000" stroke="none" 
	d="
M316.605988,214.209183 
	C320.308502,215.926483 323.418396,217.800125 322.733734,222.571564 
	C321.497559,222.973038 320.751923,223.032043 320.006287,223.091064 
	C318.284058,223.027374 316.561798,222.963699 314.417358,222.992355 
	C311.225861,222.943069 308.456604,222.801468 305.671631,222.659058 
	C306.658783,216.273529 309.254547,214.234039 316.605988,214.209183 
z"/>
<path fill="#1A355A" opacity="1.000000" stroke="none" 
	d="
M305.571533,231.142517 
	C305.776245,231.177261 305.856750,231.329117 305.927490,231.738617 
	C305.760956,231.750702 305.604187,231.505157 305.571533,231.142517 
z"/>
<path fill="#0A2B53" opacity="1.000000" stroke="none" 
	d="
M197.000198,214.128601 
	C197.000046,222.261856 197.057053,229.911240 196.969925,237.558975 
	C196.937408,240.413498 196.731842,243.802765 192.930954,243.810364 
	C189.107193,243.818024 189.060867,240.594208 188.962875,237.606384 
	C188.746033,230.993958 188.089905,224.388504 188.074783,217.779129 
	C188.061554,212.002884 188.618042,206.220688 189.039322,200.449600 
	C189.367096,195.959167 192.473938,196.999786 195.566742,197.373581 
	C196.050217,202.861633 196.525162,208.252853 197.000198,214.128601 
z"/>
<path fill="#102D52" opacity="1.000000" stroke="none" 
	d="
M331.459961,215.306641 
	C331.882965,215.284912 332.100464,215.581345 332.545197,216.036835 
	C333.461273,220.336655 334.150146,224.477432 334.980255,229.467194 
	C330.397736,229.467194 326.684967,229.467194 322.520386,229.354645 
	C322.699463,226.468750 324.396301,225.638397 327.144806,226.142944 
	C331.450836,226.933441 332.550232,225.719910 331.898438,221.340408 
	C331.616364,219.445236 331.465118,217.530594 331.459961,215.306641 
z"/>
<path fill="#102D52" opacity="1.000000" stroke="none" 
	d="
M320.060974,223.419388 
	C320.751923,223.032043 321.497559,222.973038 322.617371,222.949127 
	C322.032898,223.238724 321.074280,223.493225 320.060974,223.419388 
z"/>
<path fill="#4ED5E3" opacity="1.000000" stroke="none" 
	d="
M604.085083,177.894287 
	C605.271301,178.407272 606.457520,178.920258 607.845703,179.685791 
	C608.047607,179.938309 607.992737,180.004318 607.596802,180.013672 
	C606.116272,179.367294 605.031677,178.711578 603.982178,178.015961 
	C604.017273,177.976044 604.085083,177.894287 604.085083,177.894287 
z"/>
<path fill="#4ED5E3" opacity="1.000000" stroke="none" 
	d="
M599.200562,175.763260 
	C600.065613,175.931976 600.859375,176.189774 601.832825,176.719727 
	C602.012512,176.991882 601.961731,177.058411 601.628357,177.038361 
	C600.524414,176.688156 599.753906,176.358002 598.983337,176.027832 
	C598.983337,176.027847 599.129211,175.852341 599.200562,175.763260 
z"/>
<path fill="#4ED5E3" opacity="1.000000" stroke="none" 
	d="
M602.039246,176.959717 
	C602.614746,177.099884 603.163574,177.272232 603.898682,177.669434 
	C604.085083,177.894287 604.017273,177.976044 603.693481,177.976624 
	C602.900391,177.670944 602.431030,177.364685 601.961731,177.058411 
	C601.961731,177.058411 602.012512,176.991882 602.039246,176.959717 
z"/>
<path fill="#4ED7E6" opacity="1.000000" stroke="none" 
	d="
M601.628357,177.038361 
	C602.431030,177.364685 602.900391,177.670944 603.658447,178.016541 
	C605.031677,178.711578 606.116272,179.367294 607.568298,180.045792 
	C608.857849,184.059235 609.779907,188.049896 610.759216,192.288254 
	C601.260376,192.382233 595.132446,186.642548 596.092834,179.526031 
	C596.256165,178.316223 597.478699,177.249359 598.597656,176.072144 
	C599.753906,176.358002 600.524414,176.688156 601.628357,177.038361 
z"/>
</svg>